<svg width="2378" height="659" viewBox="0 0 2378 659" fill="none" xmlns="http://www.w3.org/2000/svg">
<g clip-path="url(#clip0_6_10)">
<path d="M59.1514 579C50.7193 579 46.5033 573.792 46.5033 563.376C46.5033 556.928 48.9833 551.968 53.9434 548.496C58.9034 544.528 65.5994 542.544 74.0313 542.544H97.0954V98.376H59.1514C50.7193 98.376 46.5033 93.168 46.5033 82.752C46.5033 76.304 48.7353 71.344 53.1994 67.872C58.1593 63.904 64.8554 61.92 73.2874 61.92H205.719C211.671 61.92 214.647 65.144 214.647 71.592C214.647 76.552 212.911 80.52 209.439 83.496C206.463 85.976 201.255 88.208 193.815 90.192L156.615 99.12V541.8L193.815 550.728C201.255 552.712 206.463 555.192 209.439 558.168C212.911 560.648 214.647 564.368 214.647 569.328C214.647 575.776 211.671 579 205.719 579H59.1514ZM308.083 579C300.147 579 296.179 574.04 296.179 564.12C296.179 557.672 298.411 552.712 302.875 549.24C307.835 545.768 314.283 544.032 322.219 544.032H345.283V250.152H308.083C300.147 250.152 296.179 245.192 296.179 235.272C296.179 228.328 298.411 223.368 302.875 220.392C307.835 216.92 314.283 215.184 322.219 215.184H398.107V267.264H400.339C442.499 227.584 485.899 207.744 530.539 207.744C565.755 207.744 594.771 218.16 617.587 238.992C640.403 259.328 651.811 287.104 651.811 322.32V544.032L687.523 552.216C700.915 555.192 707.611 561.144 707.611 570.072C707.611 576.024 704.635 579 698.683 579H558.811C550.875 579 546.907 574.04 546.907 564.12C546.907 557.672 549.139 552.712 553.603 549.24C558.563 545.768 565.011 544.032 572.947 544.032H596.011V326.784C596.011 302.48 588.819 283.136 574.435 268.752C560.547 253.872 540.459 246.432 514.171 246.432C494.827 246.432 475.235 251.888 455.395 262.8C435.555 273.216 417.451 287.6 401.083 305.952V544.032L436.795 552.216C443.739 553.704 448.699 555.936 451.675 558.912C455.147 561.392 456.883 565.112 456.883 570.072C456.883 576.024 453.907 579 447.955 579H308.083ZM917.437 587.928C887.181 587.928 859.653 581.232 834.853 567.84C810.053 553.952 790.213 533.12 775.333 505.344C760.949 477.072 753.757 442.104 753.757 400.44C753.757 361.752 760.949 327.776 775.333 298.512C790.213 269.248 810.549 246.928 836.341 231.552C862.133 215.68 891.397 207.744 924.133 207.744C963.317 207.744 1000.02 219.152 1034.24 241.968V85.728H997.045C989.109 85.728 985.141 80.768 985.141 70.848C985.141 57.456 993.821 50.76 1011.18 50.76H1088.56V544.032L1118.32 552.216C1125.26 554.2 1130.22 556.68 1133.2 559.656C1136.67 562.136 1138.4 565.608 1138.4 570.072C1138.4 576.024 1135.68 579 1130.22 579H1036.48V528.408H1033.5C1021.6 546.264 1005.97 560.648 986.629 571.56C967.781 582.472 944.717 587.928 917.437 587.928ZM930.829 551.472C959.101 551.472 983.157 542.296 1003 523.944C1023.33 505.096 1033.5 481.288 1033.5 452.52V282.144C1004.24 256.848 971.253 244.2 934.549 244.2C911.237 244.2 890.157 250.152 871.309 262.056C852.957 273.96 838.077 291.568 826.669 314.88C815.757 338.192 810.301 366.712 810.301 400.44C810.301 448.056 820.469 485.256 840.805 512.04C861.637 538.328 891.645 551.472 930.829 551.472ZM1267.11 154.92C1255.7 154.92 1246.03 151.448 1238.09 144.504C1230.65 137.064 1226.93 127.144 1226.93 114.744C1226.93 102.344 1230.65 92.672 1238.09 85.728C1246.03 78.288 1255.7 74.568 1267.11 74.568C1278.51 74.568 1288.19 78.288 1296.12 85.728C1304.06 92.672 1308.03 102.344 1308.03 114.744C1308.03 127.144 1304.06 137.064 1296.12 144.504C1288.19 151.448 1278.51 154.92 1267.11 154.92ZM1203.12 579C1195.19 579 1191.22 574.04 1191.22 564.12C1191.22 557.672 1193.45 552.712 1197.91 549.24C1202.87 545.768 1209.32 544.032 1217.26 544.032H1241.07V250.152H1203.12C1195.19 250.152 1191.22 245.192 1191.22 235.272C1191.22 228.328 1193.45 223.368 1197.91 220.392C1202.87 216.92 1209.32 215.184 1217.26 215.184H1296.87V544.032L1331.83 552.216C1338.78 553.704 1343.74 555.936 1346.71 558.912C1350.19 561.392 1351.92 565.112 1351.92 570.072C1351.92 576.024 1348.95 579 1342.99 579H1203.12ZM1390.1 579C1382.17 579 1378.2 574.04 1378.2 564.12C1378.2 558.168 1380.68 553.456 1385.64 549.984C1390.6 546.016 1396.3 544.032 1402.75 544.032H1420.61L1524.77 392.256L1428.79 250.152H1396.06C1388.12 250.152 1384.15 245.192 1384.15 235.272C1384.15 229.32 1386.63 224.608 1391.59 221.136C1396.55 217.168 1402.26 215.184 1408.7 215.184H1472.69L1573.87 366.216L1655.71 250.152H1614.79C1606.86 250.152 1602.89 245.192 1602.89 235.272C1602.89 229.32 1605.37 224.608 1610.33 221.136C1615.29 217.168 1620.99 215.184 1627.44 215.184H1742.02C1746.98 215.184 1749.46 218.16 1749.46 224.112C1749.46 232.048 1743.26 238 1730.86 241.968L1700.35 250.896L1600.66 390.768L1706.3 543.288L1736.81 552.216C1749.7 556.184 1756.15 562.136 1756.15 570.072C1756.15 576.024 1753.67 579 1748.71 579H1663.15L1552.3 416.064L1465.25 543.288L1505.42 552.216C1518.32 555.192 1524.77 561.144 1524.77 570.072C1524.77 572.056 1524.02 574.04 1522.54 576.024C1521.05 578.008 1519.06 579 1516.58 579H1390.1Z" fill="#619885"/>
<path d="M1818.89 583.908C1812.89 583.908 1807.71 581.863 1803.35 577.773C1799.26 573.683 1797.21 568.502 1797.21 562.231C1797.21 556.232 1799.26 551.188 1803.35 547.098C1807.71 543.008 1812.89 540.963 1818.89 540.963C1824.62 540.963 1829.53 543.008 1833.62 547.098C1837.98 551.188 1840.16 556.232 1840.16 562.231C1840.16 568.502 1837.98 573.683 1833.62 577.773C1829.53 581.863 1824.62 583.908 1818.89 583.908ZM1906.28 580.56C1896.66 580.56 1889.03 577.57 1883.4 571.59C1877.85 565.61 1875.08 557.507 1875.08 547.28C1875.08 540.52 1876.33 534.627 1878.85 529.6C1881.36 524.573 1884.87 520.76 1889.38 518.16C1893.88 515.473 1899.13 514.13 1905.11 514.13C1909.35 514.13 1913.56 514.91 1917.72 516.47C1921.88 518.03 1925.04 519.85 1927.21 521.93V533.5C1927.21 534.02 1927.03 534.453 1926.69 534.8C1926.34 535.06 1925.82 535.19 1925.13 535.19C1924.26 535.19 1923.57 534.93 1923.05 534.41C1922.53 533.803 1922.14 532.85 1921.88 531.55L1920.71 525.18C1919.15 523.793 1917.02 522.71 1914.34 521.93C1911.65 521.063 1908.92 520.63 1906.15 520.63C1899.73 520.63 1894.58 522.97 1890.68 527.65C1886.78 532.243 1884.83 538.787 1884.83 547.28C1884.83 555.773 1886.82 562.403 1890.81 567.17C1894.88 571.85 1900.21 574.19 1906.8 574.19C1912.69 574.19 1918.02 572.5 1922.79 569.12C1922.96 569.033 1923.31 568.817 1923.83 568.47C1924.35 568.037 1924.87 567.82 1925.39 567.82C1926.17 567.82 1926.82 568.123 1927.34 568.73C1927.86 569.337 1928.12 570.073 1928.12 570.94C1928.12 572.587 1926.69 574.233 1923.83 575.88C1918.45 579 1912.6 580.56 1906.28 580.56ZM1968.21 580.56C1958.93 580.56 1951.61 577.613 1946.24 571.72C1940.86 565.827 1938.18 557.68 1938.18 547.28C1938.18 536.967 1940.86 528.863 1946.24 522.97C1951.7 517.077 1959.02 514.13 1968.21 514.13C1977.48 514.13 1984.8 517.077 1990.18 522.97C1995.64 528.863 1998.37 536.967 1998.37 547.28C1998.37 557.68 1995.64 565.827 1990.18 571.72C1984.8 577.613 1977.48 580.56 1968.21 580.56ZM1968.34 574.19C1974.66 574.19 1979.6 571.85 1983.16 567.17C1986.71 562.49 1988.49 555.86 1988.49 547.28C1988.49 538.787 1986.71 532.2 1983.16 527.52C1979.6 522.84 1974.66 520.5 1968.34 520.5C1961.92 520.5 1956.94 522.84 1953.39 527.52C1949.83 532.2 1948.06 538.787 1948.06 547.28C1948.06 555.86 1949.83 562.49 1953.39 567.17C1956.94 571.85 1961.92 574.19 1968.34 574.19ZM2010.61 579C2009.23 579 2008.53 578.133 2008.53 576.4C2008.53 575.273 2008.92 574.407 2009.7 573.8C2010.57 573.193 2011.7 572.89 2013.08 572.89H2017.11V521.54H2010.61C2009.23 521.54 2008.53 520.673 2008.53 518.94C2008.53 517.727 2008.92 516.86 2009.7 516.34C2010.57 515.733 2011.7 515.43 2013.08 515.43H2026.34V524.27H2026.73C2030.11 521.237 2033.54 518.81 2037 516.99C2040.56 515.083 2044.33 514.13 2048.31 514.13C2052.3 514.13 2055.85 515.083 2058.97 516.99C2062.09 518.81 2064.35 521.497 2065.73 525.05C2069.29 521.757 2072.88 519.113 2076.52 517.12C2080.16 515.127 2084.15 514.13 2088.48 514.13C2094.03 514.13 2098.62 515.82 2102.26 519.2C2105.9 522.58 2107.72 527.39 2107.72 533.63V573.02L2113.7 574.32C2115.96 574.753 2117.08 575.793 2117.08 577.44C2117.08 578.48 2116.56 579 2115.52 579H2091.47C2090.09 579 2089.39 578.133 2089.39 576.4C2089.39 575.273 2089.78 574.407 2090.56 573.8C2091.43 573.193 2092.56 572.89 2093.94 572.89H2097.97V534.41C2097.97 529.99 2096.85 526.653 2094.59 524.4C2092.43 522.06 2089.44 520.89 2085.62 520.89C2082.42 520.89 2079.25 521.8 2076.13 523.62C2073.01 525.44 2070.07 527.78 2067.29 530.64V573.02L2073.4 574.32C2075.66 574.753 2076.78 575.793 2076.78 577.44C2076.78 578.48 2076.26 579 2075.22 579H2051.17C2049.79 579 2049.09 578.133 2049.09 576.4C2049.09 575.273 2049.48 574.407 2050.26 573.8C2051.13 573.193 2052.26 572.89 2053.64 572.89H2057.54V534.41C2057.54 529.99 2056.46 526.653 2054.29 524.4C2052.13 522.06 2049.14 520.89 2045.32 520.89C2042.12 520.89 2038.91 521.8 2035.7 523.62C2032.58 525.44 2029.64 527.823 2026.86 530.77V573.02L2033.1 574.32C2035.27 574.753 2036.35 575.793 2036.35 577.44C2036.35 578.48 2035.88 579 2034.92 579H2010.61Z" fill="#88B499"/>
<path d="M2136.36 580.56C2134.45 580.56 2132.8 579.91 2131.42 578.61C2130.12 577.31 2129.47 575.663 2129.47 573.67C2129.47 571.763 2130.12 570.16 2131.42 568.86C2132.8 567.56 2134.45 566.91 2136.36 566.91C2138.18 566.91 2139.74 567.56 2141.04 568.86C2142.42 570.16 2143.12 571.763 2143.12 573.67C2143.12 575.663 2142.42 577.31 2141.04 578.61C2139.74 579.91 2138.18 580.56 2136.36 580.56ZM2160.92 579C2159.54 579 2158.84 578.133 2158.84 576.4C2158.84 575.273 2159.23 574.407 2160.01 573.8C2160.88 573.193 2162.01 572.89 2163.39 572.89H2167.42V521.54H2160.92C2159.54 521.54 2158.84 520.673 2158.84 518.94C2158.84 517.727 2159.23 516.86 2160.01 516.34C2160.88 515.733 2162.01 515.43 2163.39 515.43H2176.65V524.27H2177.04C2180.42 521.237 2183.85 518.81 2187.31 516.99C2190.87 515.083 2194.64 514.13 2198.62 514.13C2202.61 514.13 2206.16 515.083 2209.28 516.99C2212.4 518.81 2214.66 521.497 2216.04 525.05C2219.6 521.757 2223.19 519.113 2226.83 517.12C2230.47 515.127 2234.46 514.13 2238.79 514.13C2244.34 514.13 2248.93 515.82 2252.57 519.2C2256.21 522.58 2258.03 527.39 2258.03 533.63V573.02L2264.01 574.32C2266.27 574.753 2267.39 575.793 2267.39 577.44C2267.39 578.48 2266.87 579 2265.83 579H2241.78C2240.4 579 2239.7 578.133 2239.7 576.4C2239.7 575.273 2240.09 574.407 2240.87 573.8C2241.74 573.193 2242.87 572.89 2244.25 572.89H2248.28V534.41C2248.28 529.99 2247.16 526.653 2244.9 524.4C2242.74 522.06 2239.75 520.89 2235.93 520.89C2232.73 520.89 2229.56 521.8 2226.44 523.62C2223.32 525.44 2220.38 527.78 2217.6 530.64V573.02L2223.71 574.32C2225.97 574.753 2227.09 575.793 2227.09 577.44C2227.09 578.48 2226.57 579 2225.53 579H2201.48C2200.1 579 2199.4 578.133 2199.4 576.4C2199.4 575.273 2199.79 574.407 2200.57 573.8C2201.44 573.193 2202.57 572.89 2203.95 572.89H2207.85V534.41C2207.85 529.99 2206.77 526.653 2204.6 524.4C2202.44 522.06 2199.45 520.89 2195.63 520.89C2192.43 520.89 2189.22 521.8 2186.01 523.62C2182.89 525.44 2179.95 527.823 2177.17 530.77V573.02L2183.41 574.32C2185.58 574.753 2186.66 575.793 2186.66 577.44C2186.66 578.48 2186.19 579 2185.23 579H2160.92ZM2274.45 579C2273.06 579 2272.37 578.133 2272.37 576.4C2272.37 575.36 2272.8 574.537 2273.67 573.93C2274.54 573.237 2275.53 572.89 2276.66 572.89H2279.78L2297.98 546.37L2281.21 521.54H2275.49C2274.1 521.54 2273.41 520.673 2273.41 518.94C2273.41 517.9 2273.84 517.077 2274.71 516.47C2275.58 515.777 2276.57 515.43 2277.7 515.43H2288.88L2306.56 541.82L2320.86 521.54H2313.71C2312.32 521.54 2311.63 520.673 2311.63 518.94C2311.63 517.9 2312.06 517.077 2312.93 516.47C2313.8 515.777 2314.79 515.43 2315.92 515.43H2335.94C2336.81 515.43 2337.24 515.95 2337.24 516.99C2337.24 518.377 2336.16 519.417 2333.99 520.11L2328.66 521.67L2311.24 546.11L2329.7 572.76L2335.03 574.32C2337.28 575.013 2338.41 576.053 2338.41 577.44C2338.41 578.48 2337.98 579 2337.11 579H2322.16L2302.79 550.53L2287.58 572.76L2294.6 574.32C2296.85 574.84 2297.98 575.88 2297.98 577.44C2297.98 577.787 2297.85 578.133 2297.59 578.48C2297.33 578.827 2296.98 579 2296.55 579H2274.45Z" fill="#E1D2A9"/>
</g>
<defs>
<clipPath id="clip0_6_10">
<rect width="2378" height="659" fill="white"/>
</clipPath>
</defs>
</svg>
