<svg width="176" height="50" viewBox="0 0 176 50" fill="none" xmlns="http://www.w3.org/2000/svg">
<path d="M9.15998 25.3018C9.0575 25.1984 9 25.0587 9 24.9131C9 24.7675 9.0575 24.6278 9.15998 24.5244L10.7024 22.9819C10.8058 22.8795 10.9455 22.822 11.0911 22.822C11.2367 22.822 11.3764 22.8795 11.4798 22.9819L25.5222 37.0367C25.5732 37.0878 25.6338 37.1283 25.7005 37.156C25.7672 37.1837 25.8387 37.1979 25.9109 37.1979C25.9831 37.1979 26.0546 37.1837 26.1213 37.156C26.188 37.1283 26.2486 37.0878 26.2996 37.0367L31.5192 31.8201C31.6226 31.7176 31.7623 31.6602 31.9079 31.6602C32.0535 31.6602 32.1932 31.7176 32.2966 31.8201L33.839 33.3626C33.8904 33.4131 33.9313 33.4734 33.9591 33.5398C33.987 33.6063 34.0013 33.6776 34.0013 33.7497C34.0013 33.8218 33.987 33.8931 33.9591 33.9596C33.9313 34.0261 33.8904 34.0863 33.839 34.1369L26.2903 41.701C26.2397 41.7506 26.1796 41.7894 26.1136 41.8153C26.0476 41.8411 25.9771 41.8534 25.9063 41.8514C25.8355 41.8493 25.7658 41.8331 25.7014 41.8035C25.637 41.774 25.5792 41.7318 25.5315 41.6794L9.15998 25.3018Z" fill="#121212"/>
<path d="M25.5253 8.15268L17.9673 15.7199C17.8648 15.8233 17.8073 15.963 17.8073 16.1086C17.8073 16.2542 17.8648 16.3939 17.9673 16.4973L19.5097 18.0397C19.6126 18.142 19.7518 18.1994 19.8969 18.1994C20.042 18.1994 20.1812 18.142 20.284 18.0397L25.5129 12.8139C25.5639 12.7628 25.6245 12.7223 25.6912 12.6946C25.7579 12.6669 25.8294 12.6527 25.9016 12.6527C25.9738 12.6527 26.0453 12.6669 26.112 12.6946C26.1787 12.7223 26.2393 12.7628 26.2903 12.8139L40.3389 26.8656C40.4417 26.9679 40.5809 27.0253 40.726 27.0253C40.8711 27.0253 41.0103 26.9679 41.1132 26.8656L42.6556 25.3231C42.7581 25.2197 42.8156 25.08 42.8156 24.9344C42.8156 24.7889 42.7581 24.6492 42.6556 24.5457L28.2184 10.1116L28.1783 10.0684L26.2749 8.17427C26.2285 8.12138 26.1716 8.07863 26.108 8.04869C26.0443 8.01874 25.9751 8.00224 25.9048 8.00021C25.8344 7.99819 25.7644 8.01068 25.6991 8.03691C25.6338 8.06314 25.5746 8.10255 25.5253 8.15268V8.15268Z" fill="#121212"/>
<path d="M38.1425 29.8768L36.6 31.4192C36.5492 31.4707 36.4887 31.5116 36.422 31.5395C36.3553 31.5674 36.2837 31.5817 36.2113 31.5817C36.139 31.5817 36.0674 31.5674 36.0007 31.5395C35.934 31.5116 35.8734 31.4707 35.8226 31.4192L30.8868 26.4834C30.7834 26.3809 30.6437 26.3234 30.4981 26.3234C30.3526 26.3234 30.2129 26.3809 30.1094 26.4834L25.1736 31.4192C25.0702 31.5217 24.9305 31.5792 24.7849 31.5792C24.6393 31.5792 24.4997 31.5217 24.3962 31.4192L22.8538 29.8768C22.7515 29.7739 22.6941 29.6347 22.6941 29.4896C22.6941 29.3445 22.7515 29.2053 22.8538 29.1025L30.1156 21.8468C30.2185 21.7445 30.3577 21.6871 30.5028 21.6871C30.6478 21.6871 30.787 21.7445 30.8899 21.8468L38.1425 29.0994C38.245 29.2028 38.3025 29.3425 38.3025 29.4881C38.3025 29.6337 38.245 29.7734 38.1425 29.8768Z" fill="#121212"/>
<path d="M13.7626 19.9616L15.305 18.4192C15.356 18.368 15.4166 18.3275 15.4833 18.2998C15.55 18.2722 15.6215 18.2579 15.6937 18.2579C15.7659 18.2579 15.8374 18.2722 15.9041 18.2998C15.9708 18.3275 16.0314 18.368 16.0824 18.4192L21.0182 23.355C21.069 23.4065 21.1295 23.4473 21.1963 23.4752C21.263 23.5031 21.3346 23.5175 21.4069 23.5175C21.4792 23.5175 21.5508 23.5031 21.6176 23.4752C21.6843 23.4473 21.7448 23.4065 21.7956 23.355L26.7314 18.4192C26.7822 18.3677 26.8427 18.3268 26.9095 18.2989C26.9762 18.271 27.0478 18.2566 27.1201 18.2566C27.1924 18.2566 27.264 18.271 27.3308 18.2989C27.3975 18.3268 27.458 18.3677 27.5088 18.4192L29.0513 19.9616C29.1027 20.0124 29.1436 20.0729 29.1715 20.1396C29.1994 20.2064 29.2138 20.278 29.2138 20.3503C29.2138 20.4226 29.1994 20.4942 29.1715 20.561C29.1436 20.6277 29.1027 20.6882 29.0513 20.739L21.7925 27.9916C21.6891 28.094 21.5494 28.1515 21.4038 28.1515C21.2582 28.1515 21.1185 28.094 21.0151 27.9916L13.7626 20.739C13.6601 20.6356 13.6026 20.4959 13.6026 20.3503C13.6026 20.2047 13.6601 20.065 13.7626 19.9616V19.9616Z" fill="#121212"/>
<path d="M75.0192 25.8754H83.2743V22.6826H75.0192V18.0244H83.8944V14.7513H71.126V34.3712H84.0825V31.0981H75.0192V25.8754Z" fill="#121212"/>
<path d="M99.5131 27.8712C99.259 28.9177 98.6867 29.8597 97.8751 30.5674C97.074 31.1993 96.0751 31.5271 95.0555 31.4929C94.3543 31.5208 93.6574 31.3715 93.0293 31.0587C92.4011 30.746 91.8619 30.28 91.4616 29.7037C90.5731 28.5006 90.132 26.7699 90.132 24.5735C90.132 22.3771 90.5793 20.6711 91.4677 19.4495C91.8666 18.8694 92.4061 18.3999 93.0356 18.0848C93.6652 17.7698 94.3644 17.6195 95.0678 17.6479C96.1327 17.6123 97.1732 17.9716 97.9892 18.6567C98.8185 19.4268 99.375 20.4456 99.5748 21.5596L99.6211 21.7724H103.483L103.431 21.4639C103.082 19.2336 102.157 17.4752 100.679 16.2412C99.2016 15.0073 97.3445 14.3903 95.148 14.3903C93.4868 14.3565 91.8505 14.7974 90.4312 15.6613C89.0739 16.5267 88.0011 17.7722 87.3463 19.2428C86.6068 20.9273 86.2436 22.7528 86.2821 24.592C86.2442 26.4352 86.6073 28.2646 87.3463 29.9535C87.9938 31.4249 89.0617 32.672 90.4158 33.5382C91.8174 34.3843 93.4311 34.8134 95.0678 34.7752C97.3167 34.7752 99.1892 34.1829 100.636 33.0137C102.083 31.8446 103.024 30.1571 103.431 27.9977L103.493 27.6707H99.5687L99.5131 27.8712Z" fill="#121212"/>
<path d="M117.162 24.1262C115.98 23.5898 114.756 23.1513 113.503 22.8151C112.656 22.5755 111.831 22.266 111.035 21.8896C110.564 21.6797 110.149 21.3628 109.823 20.9642C109.57 20.6034 109.443 20.1702 109.459 19.7302C109.441 19.4295 109.499 19.1291 109.628 18.8568C109.757 18.5845 109.952 18.3491 110.196 18.1723C110.839 17.7618 111.594 17.5633 112.355 17.6047C113.444 17.6047 114.28 17.8021 114.842 18.1908C115.126 18.3987 115.364 18.664 115.539 18.9696C115.715 19.2751 115.824 19.6142 115.86 19.9647L115.897 20.1929H119.599L119.568 19.8844C119.38 18.0335 118.661 16.633 117.433 15.726C116.205 14.8191 114.469 14.3779 112.226 14.3779C110.211 14.3779 108.586 14.8684 107.401 15.8278C106.217 16.7872 105.587 18.1631 105.587 19.8598C105.567 20.5474 105.705 21.2305 105.99 21.8563C106.276 22.4821 106.702 23.0339 107.235 23.4691C108.296 24.3544 109.786 25.0794 111.668 25.6285C112.595 25.8692 113.506 26.1659 114.398 26.5169C114.903 26.7137 115.352 27.0315 115.706 27.4424C116.022 27.8761 116.178 28.4059 116.147 28.9417C116.161 29.3052 116.087 29.6667 115.931 29.9955C115.775 30.3242 115.542 30.6104 115.252 30.8296C114.541 31.3383 113.679 31.5926 112.806 31.5515C111.738 31.5515 110.89 31.3201 110.285 30.8666C109.681 30.4131 109.36 29.6327 109.249 28.5653L109.224 28.3154H105.384L105.411 28.6239C105.785 32.7114 108.243 34.7937 112.726 34.7937C114.027 34.8173 115.319 34.5661 116.517 34.0564C117.576 33.6088 118.483 32.8655 119.13 31.9155C119.749 30.9796 120.072 29.8787 120.055 28.7566C120.102 27.7394 119.835 26.7325 119.29 25.8722C118.742 25.1173 118.009 24.516 117.162 24.1262V24.1262Z" fill="#121212"/>
<path d="M135.501 15.6271C134.089 14.8062 132.484 14.3738 130.851 14.3738C129.217 14.3738 127.613 14.8062 126.2 15.6271C124.842 16.4926 123.762 17.732 123.091 19.1963C122.331 20.885 121.958 22.722 121.999 24.5733C121.958 26.4256 122.331 28.2636 123.091 29.9533C123.761 31.4176 124.841 32.6563 126.2 33.5195C127.613 34.3403 129.217 34.7727 130.851 34.7727C132.484 34.7727 134.089 34.3403 135.501 33.5195C136.861 32.6563 137.941 31.4176 138.611 29.9533C139.37 28.2635 139.743 26.4255 139.703 24.5733C139.743 22.7221 139.37 20.8851 138.611 19.1963C137.94 17.732 136.86 16.4926 135.501 15.6271V15.6271ZM134.459 29.7004C134.034 30.2585 133.486 30.7109 132.858 31.0224C132.23 31.3339 131.538 31.4959 130.837 31.4959C130.136 31.4959 129.444 31.3339 128.816 31.0224C128.188 30.7109 127.64 30.2585 127.215 29.7004C126.321 28.4849 125.864 26.7574 125.864 24.561C125.864 22.3645 126.321 20.6617 127.215 19.437C127.639 18.8772 128.186 18.4232 128.814 18.1106C129.443 17.798 130.135 17.6353 130.837 17.6353C131.539 17.6353 132.231 17.798 132.86 18.1106C133.488 18.4232 134.035 18.8772 134.459 19.437C135.356 20.6709 135.81 22.383 135.81 24.561C135.81 26.7389 135.356 28.4633 134.459 29.6849V29.7004Z" fill="#121212"/>
<path d="M157.756 14.7513L155.809 21.2018C154.634 24.95 153.73 27.9546 153.119 30.148C152.53 27.9886 151.543 24.6291 150.185 20.153C149.932 19.3447 149.411 17.611 148.621 14.9519L148.563 14.7544H143.01V34.3743H146.607V20.9304C147.958 24.842 149.464 29.2966 151.089 34.1954L151.151 34.3835H154.915L157.62 26.3628C158.333 24.2836 158.888 22.661 159.298 21.427V34.3835H163V14.7513H157.756Z" fill="#121212"/>
<path d="M59.678 14.6462L59.6749 26.0047H62.9665V17.9377L68.9172 17.9408V14.6493L59.678 14.6462Z" fill="#121212"/>
<path d="M57.753 14.6493L49.1431 14.6462V17.9377L55.1309 17.9408L55.1278 34.3709H58.4039L58.407 17.9408V17.8915L58.4286 15.7074L58.4348 15.7135V14.6493H57.753Z" fill="#121212"/>
<path d="M37.6304 28.2395L37.6304 28.2395C38.3229 27.881 38.9659 27.698 39.799 27.6168L37.6304 28.2395ZM37.6304 28.2395C36.5723 28.7873 35.718 29.6591 35.1899 30.7294L35.1899 30.7294M37.6304 28.2395L35.1899 30.7294M35.1899 30.7294C34.9907 31.1332 34.8921 31.3923 34.7861 31.7952L35.1899 30.7294ZM34.6116 33.1772L34.6116 33.1772C34.6128 32.6231 34.6527 32.3024 34.7861 31.7952L34.6116 33.1772ZM34.6116 33.1772C34.611 33.4383 34.6214 33.7443 34.6398 33.8827C34.7584 34.7737 35.0399 35.55 35.5117 36.2758L35.5553 36.3429L35.2909 37.1236C35.2013 37.3881 35.1204 37.6296 35.0623 37.8058C35.0332 37.8937 35.0096 37.9663 34.9932 38.0177C34.9851 38.0431 34.9782 38.0652 34.9732 38.0821C34.9709 38.0899 34.9678 38.1004 34.9651 38.111C34.964 38.1151 34.961 38.1266 34.9584 38.1408C34.9574 38.1463 34.954 38.1644 34.9525 38.1877C34.9518 38.1981 34.9503 38.2244 34.9541 38.2576C34.9542 38.2579 34.9542 38.2583 34.9543 38.2589C34.9558 38.2743 34.9675 38.3898 35.0646 38.4876L35.0663 38.4892C35.1241 38.5467 35.1853 38.5714 35.216 38.5818C35.2498 38.5932 35.2783 38.5976 35.2946 38.5995C35.327 38.6033 35.3526 38.6021 35.3627 38.6016C35.3853 38.6003 35.4029 38.5972 35.4082 38.5963C35.4221 38.5939 35.4334 38.5912 35.4374 38.5902C35.4479 38.5876 35.4584 38.5847 35.4664 38.5825C35.4835 38.5777 35.5061 38.571 35.5322 38.5632C35.5849 38.5474 35.6596 38.5244 35.75 38.4962C35.9312 38.4398 36.1796 38.3613 36.4517 38.2742C36.7227 38.1875 36.9707 38.1088 37.1518 38.0518C37.2045 38.0352 37.2514 38.0205 37.2914 38.008L34.6116 33.1772ZM43.3646 34.6545L43.3531 34.8708M43.3646 34.6545L43.2954 34.6023C43.2232 34.5479 42.1951 34.0472 42.0269 33.9846C41.8958 33.9358 41.7789 33.9525 41.7001 34.0312C41.6672 34.0641 41.5514 34.2093 41.443 34.3537C41.2038 34.672 41.1468 34.7163 40.9904 34.705C40.6864 34.683 40.004 34.2772 39.5525 33.8498L43.3531 34.8708M43.3646 34.6545L43.2072 34.8631L43.1307 34.9646L43.0741 34.9219L43.3646 34.6545ZM43.3531 34.8708C43.3239 35.4263 43.129 35.7147 42.6138 35.9655L43.3531 34.8708ZM40.9625 35.0924C40.8236 35.0824 40.678 35.0338 40.5505 34.9803C40.4162 34.9238 40.272 34.8488 40.1282 34.7633C39.8417 34.5929 39.5346 34.3678 39.2855 34.1319C39.1176 33.973 38.912 33.7284 38.7474 33.5101C38.6638 33.3993 38.5858 33.2887 38.5248 33.192C38.4943 33.1438 38.4656 33.0951 38.4418 33.0489C38.4216 33.0097 38.3912 32.9462 38.3757 32.8757L38.3757 32.8756C38.3394 32.7104 38.3835 32.569 38.4541 32.4505C38.5113 32.3544 38.6003 32.2495 38.7033 32.1338C38.7821 32.0451 38.8325 31.979 38.8624 31.9328C38.8508 31.9028 38.8368 31.8675 38.8209 31.8277C38.7722 31.7058 38.7076 31.5479 38.6413 31.3881C38.5749 31.2283 38.5074 31.068 38.4529 30.9414C38.4256 30.878 38.4021 30.8241 38.3838 30.7834C38.3832 30.782 38.3826 30.7806 38.3819 30.7793C38.3649 30.778 38.3452 30.7769 38.323 30.7762L38.323 30.7762C38.0933 30.7685 38.0196 30.8164 37.9726 30.8634L37.9726 30.8634C37.728 31.108 37.6144 31.3471 37.579 31.6957C37.5369 32.1089 37.6671 32.552 38.1272 33.2109C38.4091 33.6144 38.6523 33.9056 38.999 34.2545L38.999 34.2545C39.6801 34.9398 40.1633 35.2413 41.1166 35.5708C41.4788 35.696 41.7165 35.7468 41.9061 35.75C42.0835 35.753 42.2414 35.7147 42.4438 35.6162C42.6684 35.5069 42.7797 35.41 42.8438 35.315C42.906 35.223 42.951 35.0927 42.9645 34.8636C42.9489 34.8555 42.9321 34.8469 42.9142 34.8378C42.8077 34.7836 42.6694 34.715 42.5271 34.6457C42.2708 34.5209 42.0278 34.4066 41.9272 34.3633C41.9199 34.3724 41.9119 34.3823 41.9035 34.3928C41.8594 34.4481 41.8057 34.5175 41.7535 34.587L40.9625 35.0924ZM40.9625 35.0924C40.9625 35.0924 40.9625 35.0924 40.9625 35.0924L40.9903 34.7074L40.9625 35.0924ZM35.8257 36.0717L35.66 36.1795L35.8257 36.0717ZM37.3177 38.0242C37.4275 38.0924 37.6371 38.204 37.7905 38.2774C39.2076 38.9556 40.8294 39.0142 42.2825 38.4379L42.1438 38.0882L42.2825 38.4379C43.9292 37.7849 45.1917 36.3586 45.6429 34.6425C45.781 34.1175 45.8169 33.8158 45.8169 33.2189C45.8169 32.6219 45.781 32.3202 45.6429 31.7952C45.1135 29.7818 43.5008 28.2186 41.4666 27.7442L41.3954 28.0498L41.4666 27.7442C41.1165 27.6626 40.7574 27.6227 40.3341 27.6147L37.3177 38.0242ZM45.2673 34.5438C45.3959 34.0546 45.4285 33.7865 45.4285 33.2189C45.4285 32.6512 45.3959 32.3831 45.2673 31.894C44.7746 30.0206 43.2731 28.5644 41.3784 28.1225C41.0601 28.0482 40.7288 28.0106 40.3268 28.0031C40.1022 27.9989 39.8817 27.999 39.8368 28.0034L45.2673 34.5438ZM38.896 32.0228C38.8959 32.0227 38.8955 32.0216 38.8949 32.0195C38.8957 32.0218 38.896 32.0229 38.896 32.0228ZM40.3341 27.6147C40.1213 27.6107 39.8725 27.6096 39.7991 27.6168L40.3341 27.6147Z" fill="url(#paint0_linear_206_14)" stroke="white" stroke-width="0.776839"/>
<defs>
<linearGradient id="paint0_linear_206_14" x1="40.2143" y1="28" x2="40.2143" y2="38.4432" gradientUnits="userSpaceOnUse">
<stop stop-color="#69D674"/>
<stop offset="1" stop-color="#055A18"/>
</linearGradient>
</defs>
</svg>
